<svg id="Layer_1" data-name="Layer 1" xmlns="http://www.w3.org/2000/svg" viewBox="0 0 2000 400"><defs><style>.cls-1{fill:#384443;}.cls-2{fill:#ada78e;}</style></defs><title>Artboard 1</title><path class="cls-1" d="M613.29,99.31h61.12v75H649.56V149.21c-5.27,16.49-17.14,27.7-42.64,27.7-34.3,0-60-23.74-60-77.6s25.94-76.07,66.39-76.07c45.51,0,63.31,25.72,58.26,51.88L637,78.86c2.64-20.44-7.47-29.68-22-29.68-16,0-30.12,11.65-30.12,50.79s12.09,50.12,29.9,50.12c16.49,0,25.72-10.11,26.16-20.23v-4.17h-27.7Z"/><path class="cls-1" d="M721.23,25.88h61.11c29,0,48.59,14.07,48.59,41.33,0,22.2-15.17,35.61-29.9,40.23,4.4,3.74,7.69,8.79,10.33,14.07,6.16,12.53,10.33,26.38,23.31,26.38a17.09,17.09,0,0,0,5.93-1.1L837.74,173a71.83,71.83,0,0,1-14.73,2c-17.58,0-27.7-6.82-38-30.34-4.4-10.55-10.55-29-18.69-29h-8.35v58.7H721.23Zm36.71,26.6V89h13.19C781.68,89,794,85.68,794,69.85c0-13-8.35-17.37-18.46-17.37Z"/><path class="cls-1" d="M880.83,25.88H979.1V53.14H917.54V85H969.2v27.26H917.54V147h63.75v27.26H880.83Z"/><path class="cls-1" d="M1025.26,25.88h98.26V53.14H1062V85h51.66v27.26H1062V147h63.75v27.26H1025.26Z"/><path class="cls-1" d="M1169.69,25.88H1209L1248,99.53c3.3,6.37,7.69,17.58,11.21,26.38h.88c-.44-8.36-1.54-20.23-1.54-28.8V25.88h30.12V174.27h-38.47l-40.45-73.43c-3.74-6.59-7.7-16.26-10.78-24.18h-.87c.66,8.36,1.75,18.25,1.75,26.38v71.23h-30.11Z"/><path class="cls-1" d="M1326.65,25.88h38l27.92,83.76c3.52,10.77,4.84,26.82,4.84,26.82h.87s1.54-16.05,5.06-26.6l27.48-84h33.2l-50.79,148.39h-35.61Z"/><path class="cls-1" d="M1495.7,25.88h76.5V51.82h-20v96.51h20v25.94h-76.5V148.33h19.79V51.82H1495.7Z"/><path class="cls-1" d="M1617.05,25.88h36.71V147h61.77v27.26h-98.48Z"/><path class="cls-1" d="M1755.54,25.88h36.72V147H1854v27.26h-98.49Z"/><path class="cls-1" d="M1894,25.88h98.27V53.14h-61.56V85h51.66v27.26h-51.66V147h63.76v27.26H1894Z"/><path class="cls-1" d="M613.29,299.16h61.12v75H649.56V349.06c-5.27,16.49-17.14,27.7-42.64,27.7-34.3,0-60-23.74-60-77.6s25.94-76.07,66.39-76.07c45.51,0,63.31,25.72,58.26,51.88L637,278.71c2.64-20.44-7.47-29.68-22-29.68-16,0-30.12,11.65-30.12,50.79s12.09,50.12,29.9,50.12c16.49,0,25.72-10.11,26.16-20.23v-4.17h-27.7Z"/><path class="cls-1" d="M765.86,225.73H803l50.12,148.39H816L806.75,346H757.06l-9,28.14H716Zm0,93h31.87l-10.11-31.21C784.1,277,782.56,262,782.56,262h-.88s-2.19,15.17-5.49,25.28Z"/><path class="cls-1" d="M899.51,225.73h61.12c29,0,48.58,14.07,48.58,41.33,0,22.2-15.17,35.61-29.9,40.23,4.4,3.74,7.7,8.79,10.34,14.07,6.15,12.53,10.33,26.38,23.3,26.38a17.11,17.11,0,0,0,5.94-1.1L1016,372.8a72,72,0,0,1-14.73,2c-17.59,0-27.7-6.81-38-30.34-4.4-10.55-10.56-29-18.69-29h-8.35v58.7H899.51Zm36.72,26.6v36.49h13.19c10.55,0,22.86-3.29,22.86-19.12,0-13-8.35-17.37-18.47-17.37Z"/><path class="cls-1" d="M1067,225.73h56.71c36.94,0,65.52,21.54,65.52,73.43,0,50.78-27.26,75-65.52,75H1067Zm53.2,121.79c16.27,0,31.87-9.89,31.87-48.36,0-38.26-15.6-46.83-31.87-46.83h-16.49v95.19Z"/><path class="cls-1" d="M1242.23,225.73h98.27V253H1279v31.88h51.66v27.26H1279v34.73h63.75v27.26H1242.23Z"/><path class="cls-1" d="M1394.58,225.73h39.35l38.91,73.65c3.3,6.37,7.69,17.58,11.21,26.38h.88c-.44-8.36-1.54-20.23-1.54-28.8V225.73h30.12V374.12H1475l-40.45-73.43c-3.74-6.59-7.7-16.26-10.77-24.18h-.88c.66,8.36,1.76,18.25,1.76,26.38v71.23h-30.12Z"/><path class="cls-1" d="M1573.08,225.73h98.27V253H1609.8v31.88h51.66v27.26H1609.8v34.73h63.75v27.26H1573.08Z"/><path class="cls-1" d="M1725.43,225.73h61.11c29,0,48.59,14.07,48.59,41.33,0,22.2-15.17,35.61-29.9,40.23,4.4,3.74,7.69,8.79,10.33,14.07,6.16,12.53,10.33,26.38,23.3,26.38a17.11,17.11,0,0,0,5.94-1.1l-2.86,26.16a71.83,71.83,0,0,1-14.73,2c-17.58,0-27.7-6.81-38-30.34-4.4-10.55-10.55-29-18.69-29h-8.35v58.7h-36.71Zm36.71,26.6v36.49h13.19c10.55,0,22.86-3.29,22.86-19.12,0-13-8.35-17.37-18.46-17.37Z"/><path class="cls-1" d="M1917.56,325.32c-2.64,11.87,2,25.5,25.28,25.5,15.39,0,20.67-6.16,20.67-14.29,0-12.31-12.31-15.39-26.82-20.67-21.77-7.47-48.59-18-48.59-49,0-27.7,21.33-44.63,57.6-43.75,44.41.88,56.94,27,52.1,49.69l-33.63,3.07c2.19-17.14-4-26.82-21.33-26.82-11.65,0-18.25,4.4-18.25,13.63,0,12.31,11.88,16,26.39,21.11,22.42,7.47,49,16.49,49,47.26,0,26.6-19.79,45.73-58.48,45.73-36.27,0-61.11-16.71-56.06-48.37Z"/><path class="cls-2" d="M386.92,93.46c-5.77,0-11.48.26-17.13.74a200.12,200.12,0,0,0-339.58,0c-5.65-.48-11.36-.74-17.13-.74H0V200C0,310.28,89.72,400,200,400s200-89.72,200-200V93.46Zm-13.09,93.9a200.21,200.21,0,0,0-160.61,100.5c2.83-88.9,72.69-161.18,160.61-167.75ZM200,222.32a201,201,0,0,0-70.83-91.63,99.17,99.17,0,0,1,141.66,0A201,201,0,0,0,200,222.32Zm0-196.15A174.52,174.52,0,0,1,341.33,98.71a198.34,198.34,0,0,0-47.83,18,125.29,125.29,0,0,0-187,0,198.34,198.34,0,0,0-47.83-18A174.52,174.52,0,0,1,200,26.17ZM186.78,287.86A200.21,200.21,0,0,0,26.17,187.36V120.11C114.09,126.68,184,199,186.78,287.86ZM26.7,213.62c85,6.61,153.07,74.66,159.68,159.68C101.37,366.68,33.32,298.63,26.7,213.62ZM213.62,373.3c6.61-85,74.66-153.07,159.68-159.68C366.68,298.63,298.63,366.68,213.62,373.3Z"/></svg>