<?xml version="1.0" encoding="utf-8"?>
<!-- Generator: Adobe Illustrator 22.1.0, SVG Export Plug-In . SVG Version: 6.00 Build 0)  -->
<svg version="1.1" id="Layer_1" xmlns="http://www.w3.org/2000/svg" xmlns:xlink="http://www.w3.org/1999/xlink" x="0px" y="0px"
	 viewBox="0 0 2000 2000" style="enable-background:new 0 0 2000 2000;" xml:space="preserve">
<style type="text/css">
	.st0{fill:#AEA78F;}
</style>
<path class="st0" d="M1934.6,467.3c-28.8,0-57.4,1.3-85.6,3.7C1667.1,179.6,1344.9,0,1000,0S332.9,179.6,151,471
	c-28.2-2.4-56.8-3.7-85.6-3.7H0V1000c0,551.4,448.6,1000,1000,1000s1000-448.6,1000-1000V467.3H1934.6z M1869.2,936.8
	c-343.8,22.3-640.8,219.1-803.1,502.5c14.2-444.5,363.4-805.9,803.1-838.7V936.8z M1000,1111.6c-70.8-185.4-195.1-344.5-354.1-458.2
	c92.3-94.4,219.3-148.8,354.1-148.8s261.8,54.4,354.1,148.8C1195.1,767.2,1070.8,926.3,1000,1111.6z M1000,130.8
	c280.9,0,544.5,137.1,706.6,362.7c-84.3,19.7-164.5,50.2-239.1,89.8c-118-132.5-287.1-209.5-467.5-209.5s-349.6,77-467.5,209.5
	c-74.6-39.6-154.8-70-239.1-89.8C455.5,267.9,719.1,130.8,1000,130.8z M933.9,1439.3c-162.3-283.4-459.3-480.2-803.1-502.5V600.6
	C570.5,633.4,919.7,994.8,933.9,1439.3z M133.5,1068.1c425.1,33.1,765.3,373.3,798.4,798.4C506.8,1833.4,166.6,1493.2,133.5,1068.1z
	 M1068.1,1866.5c33.1-425.1,373.3-765.3,798.4-798.4C1833.4,1493.2,1493.2,1833.4,1068.1,1866.5z"/>
</svg>
